<svg xmlns="http://www.w3.org/2000/svg" viewBox="0 0 48 48" width="48" height="48">
  <defs>
    <linearGradient id="rs-logo-g" x1="6" y1="4" x2="42" y2="44" gradientUnits="userSpaceOnUse">
      <stop offset="0" stop-color="#2DD4BF"/>
      <stop offset="1" stop-color="#0E7490"/>
    </linearGradient>
    <radialGradient id="rs-logo-m" cx="18" cy="24" r="6.5" gradientUnits="userSpaceOnUse">
      <stop offset="0" stop-color="#083344" stop-opacity=".5"/>
      <stop offset="1" stop-color="#083344" stop-opacity="0"/>
    </radialGradient>
  </defs>
  <circle cx="24" cy="24" r="22" fill="url(#rs-logo-g)"/>
  <circle cx="18" cy="24" r="6.5" fill="url(#rs-logo-m)"/>
  <g fill="none" stroke="#fff" stroke-linecap="round">
    <path d="M28.2 21C26.5 13.2 16.5 10.6 9.6 16.4" stroke-width="1.9" stroke-opacity=".95"/>
    <path d="M28.2 27C26.5 34.8 16.5 37.4 9.6 31.6" stroke-width="1.9" stroke-opacity=".95"/>
    <path d="M19.6 12.6C17.8 10.4 15.6 8.8 13 7.8" stroke-width="1.2" stroke-opacity=".75"/>
    <path d="M19.6 35.4C17.8 37.6 15.6 39.2 13 40.2" stroke-width="1.2" stroke-opacity=".75"/>
    <path d="M34.4 21.4C36.6 20.2 38.6 18.4 40.2 16" stroke-width="1.3" stroke-opacity=".8"/>
    <path d="M34.4 26.6C36.6 27.8 38.6 29.6 40.2 32" stroke-width="1.3" stroke-opacity=".8"/>
  </g>
  <circle cx="31" cy="24" r="4.4" fill="#FFF7E0"/>
  <circle cx="31" cy="24" r="1.8" fill="#FDE68A"/>
</svg>
